<svg xmlns="http://www.w3.org/2000/svg" version="1.1" xmlns:xlink="http://www.w3.org/1999/xlink" xmlns:svgjs="http://svgjs.dev/svgjs" width="1440" height="560" preserveAspectRatio="none" viewBox="0 0 1440 560"><g mask="url(&quot;#SvgjsMask1012&quot;)" fill="none"><rect width="1440" height="560" x="0" y="0" fill="#0e2a47"></rect><path d="M-89.39 358.87L-89.39 358.87" stroke="#132e65" stroke-width="1.5"></path><path d="M-89.39 358.87L-49.3 501.61" stroke="#132e65" stroke-width="1.5"></path><path d="M-89.39 358.87L98.77 351.37" stroke="#132e65" stroke-width="1.5"></path><path d="M-89.39 358.87L39.78 500.06" stroke="#132e65" stroke-width="1.5"></path><path d="M-89.39 358.87L230.54 366.11" stroke="#132e65" stroke-width="1.5"></path><path d="M-89.39 358.87L-69.74 689.01" stroke="#132e65" stroke-width="1.5"></path><path d="M-89.39 358.87L70.48 660.57" stroke="#132e65" stroke-width="1.5"></path><path d="M-49.3 501.61L-49.3 501.61" stroke="#132e65" stroke-width="1.5"></path><path d="M-49.3 501.61L39.78 500.06" stroke="#132e65" stroke-width="1.5"></path><path d="M-49.3 501.61L-69.74 689.01" stroke="#132e65" stroke-width="1.5"></path><path d="M-49.3 501.61L70.48 660.57" stroke="#132e65" stroke-width="1.5"></path><path d="M-49.3 501.61L98.77 351.37" stroke="#132e65" stroke-width="1.5"></path><path d="M-69.74 689.01L-69.74 689.01" stroke="#132e65" stroke-width="1.5"></path><path d="M-69.74 689.01L70.48 660.57" stroke="#132e65" stroke-width="1.5"></path><path d="M98.77 351.37L98.77 351.37" stroke="#132e65" stroke-width="1.5"></path><path d="M98.77 351.37L230.54 366.11" stroke="#132e65" stroke-width="1.5"></path><path d="M98.77 351.37L39.78 500.06" stroke="#132e65" stroke-width="1.5"></path><path d="M39.78 500.06L39.78 500.06" stroke="#132e65" stroke-width="1.5"></path><path d="M70.48 660.57L70.48 660.57" stroke="#132e65" stroke-width="1.5"></path><path d="M70.48 660.57L226.66 684.88" stroke="#132e65" stroke-width="1.5"></path><path d="M70.48 660.57L194.16 555.16" stroke="#132e65" stroke-width="1.5"></path><path d="M70.48 660.57L39.78 500.06" stroke="#132e65" stroke-width="1.5"></path><path d="M230.54 366.11L230.54 366.11" stroke="#132e65" stroke-width="1.5"></path><path d="M230.54 366.11L341.01 382.84" stroke="#132e65" stroke-width="1.5"></path><path d="M194.16 555.16L194.16 555.16" stroke="#132e65" stroke-width="1.5"></path><path d="M194.16 555.16L226.66 684.88" stroke="#132e65" stroke-width="1.5"></path><path d="M194.16 555.16L39.78 500.06" stroke="#132e65" stroke-width="1.5"></path><path d="M194.16 555.16L357.18 495.92" stroke="#132e65" stroke-width="1.5"></path><path d="M194.16 555.16L230.54 366.11" stroke="#132e65" stroke-width="1.5"></path><path d="M226.66 684.88L226.66 684.88" stroke="#132e65" stroke-width="1.5"></path><path d="M226.66 684.88L407.66 708.65" stroke="#132e65" stroke-width="1.5"></path><path d="M226.66 684.88L357.18 495.92" stroke="#132e65" stroke-width="1.5"></path><path d="M226.66 684.88L39.78 500.06" stroke="#132e65" stroke-width="1.5"></path><path d="M341.01 382.84L341.01 382.84" stroke="#132e65" stroke-width="1.5"></path><path d="M341.01 382.84L357.18 495.92" stroke="#132e65" stroke-width="1.5"></path><path d="M341.01 382.84L506.68 384.28" stroke="#132e65" stroke-width="1.5"></path><path d="M341.01 382.84L194.16 555.16" stroke="#132e65" stroke-width="1.5"></path><path d="M357.18 495.92L357.18 495.92" stroke="#132e65" stroke-width="1.5"></path><path d="M407.66 708.65L407.66 708.65" stroke="#132e65" stroke-width="1.5"></path><path d="M407.66 708.65L533.21 707.63" stroke="#132e65" stroke-width="1.5"></path><path d="M407.66 708.65L357.18 495.92" stroke="#132e65" stroke-width="1.5"></path><path d="M407.66 708.65L540.37 498.34" stroke="#132e65" stroke-width="1.5"></path><path d="M407.66 708.65L194.16 555.16" stroke="#132e65" stroke-width="1.5"></path><path d="M407.66 708.65L691.38 685.88" stroke="#132e65" stroke-width="1.5"></path><path d="M506.68 384.28L506.68 384.28" stroke="#132e65" stroke-width="1.5"></path><path d="M506.68 384.28L540.37 498.34" stroke="#132e65" stroke-width="1.5"></path><path d="M506.68 384.28L665.55 342.53" stroke="#132e65" stroke-width="1.5"></path><path d="M540.37 498.34L540.37 498.34" stroke="#132e65" stroke-width="1.5"></path><path d="M533.21 707.63L533.21 707.63" stroke="#132e65" stroke-width="1.5"></path><path d="M533.21 707.63L691.38 685.88" stroke="#132e65" stroke-width="1.5"></path><path d="M683 206.27L683 206.27" stroke="#132e65" stroke-width="1.5"></path><path d="M683 206.27L665.55 342.53" stroke="#132e65" stroke-width="1.5"></path><path d="M683 206.27L829.77 250.33" stroke="#132e65" stroke-width="1.5"></path><path d="M683 206.27L842.64 86.17" stroke="#132e65" stroke-width="1.5"></path><path d="M683 206.27L845.22 391.08" stroke="#132e65" stroke-width="1.5"></path><path d="M683 206.27L506.68 384.28" stroke="#132e65" stroke-width="1.5"></path><path d="M683 206.27L952.07 197.79" stroke="#132e65" stroke-width="1.5"></path><path d="M665.55 342.53L665.55 342.53" stroke="#132e65" stroke-width="1.5"></path><path d="M665.55 342.53L671.89 513.88" stroke="#132e65" stroke-width="1.5"></path><path d="M665.55 342.53L845.22 391.08" stroke="#132e65" stroke-width="1.5"></path><path d="M665.55 342.53L829.77 250.33" stroke="#132e65" stroke-width="1.5"></path><path d="M671.89 513.88L671.89 513.88" stroke="#132e65" stroke-width="1.5"></path><path d="M671.89 513.88L540.37 498.34" stroke="#132e65" stroke-width="1.5"></path><path d="M671.89 513.88L841.4 534.47" stroke="#132e65" stroke-width="1.5"></path><path d="M671.89 513.88L691.38 685.88" stroke="#132e65" stroke-width="1.5"></path><path d="M671.89 513.88L506.68 384.28" stroke="#132e65" stroke-width="1.5"></path><path d="M671.89 513.88L845.22 391.08" stroke="#132e65" stroke-width="1.5"></path><path d="M691.38 685.88L691.38 685.88" stroke="#132e65" stroke-width="1.5"></path><path d="M691.38 685.88L823.48 692.66" stroke="#132e65" stroke-width="1.5"></path><path d="M691.38 685.88L841.4 534.47" stroke="#132e65" stroke-width="1.5"></path><path d="M842.64 86.17L842.64 86.17" stroke="#132e65" stroke-width="1.5"></path><path d="M842.64 86.17L952.07 197.79" stroke="#132e65" stroke-width="1.5"></path><path d="M842.64 86.17L829.77 250.33" stroke="#132e65" stroke-width="1.5"></path><path d="M842.64 86.17L1009.05 64.56" stroke="#132e65" stroke-width="1.5"></path><path d="M842.64 86.17L939.55 -102.11" stroke="#132e65" stroke-width="1.5"></path><path d="M829.77 250.33L829.77 250.33" stroke="#132e65" stroke-width="1.5"></path><path d="M829.77 250.33L952.07 197.79" stroke="#132e65" stroke-width="1.5"></path><path d="M829.77 250.33L845.22 391.08" stroke="#132e65" stroke-width="1.5"></path><path d="M845.22 391.08L845.22 391.08" stroke="#132e65" stroke-width="1.5"></path><path d="M845.22 391.08L841.4 534.47" stroke="#132e65" stroke-width="1.5"></path><path d="M845.22 391.08L994.3 379.4" stroke="#132e65" stroke-width="1.5"></path><path d="M845.22 391.08L963.32 525.9" stroke="#132e65" stroke-width="1.5"></path><path d="M841.4 534.47L841.4 534.47" stroke="#132e65" stroke-width="1.5"></path><path d="M841.4 534.47L963.32 525.9" stroke="#132e65" stroke-width="1.5"></path><path d="M841.4 534.47L823.48 692.66" stroke="#132e65" stroke-width="1.5"></path><path d="M841.4 534.47L963.49 652.17" stroke="#132e65" stroke-width="1.5"></path><path d="M823.48 692.66L823.48 692.66" stroke="#132e65" stroke-width="1.5"></path><path d="M823.48 692.66L963.49 652.17" stroke="#132e65" stroke-width="1.5"></path><path d="M823.48 692.66L963.32 525.9" stroke="#132e65" stroke-width="1.5"></path><path d="M939.55 -102.11L939.55 -102.11" stroke="#132e65" stroke-width="1.5"></path><path d="M939.55 -102.11L1090.07 -71.88" stroke="#132e65" stroke-width="1.5"></path><path d="M939.55 -102.11L1009.05 64.56" stroke="#132e65" stroke-width="1.5"></path><path d="M1009.05 64.56L1009.05 64.56" stroke="#132e65" stroke-width="1.5"></path><path d="M1009.05 64.56L1143.39 97.94" stroke="#132e65" stroke-width="1.5"></path><path d="M1009.05 64.56L952.07 197.79" stroke="#132e65" stroke-width="1.5"></path><path d="M1009.05 64.56L1090.07 -71.88" stroke="#132e65" stroke-width="1.5"></path><path d="M952.07 197.79L952.07 197.79" stroke="#132e65" stroke-width="1.5"></path><path d="M952.07 197.79L994.3 379.4" stroke="#132e65" stroke-width="1.5"></path><path d="M994.3 379.4L994.3 379.4" stroke="#132e65" stroke-width="1.5"></path><path d="M994.3 379.4L1095.27 353.48" stroke="#132e65" stroke-width="1.5"></path><path d="M963.32 525.9L963.32 525.9" stroke="#132e65" stroke-width="1.5"></path><path d="M963.32 525.9L963.49 652.17" stroke="#132e65" stroke-width="1.5"></path><path d="M963.32 525.9L994.3 379.4" stroke="#132e65" stroke-width="1.5"></path><path d="M963.32 525.9L1118.46 490.59" stroke="#132e65" stroke-width="1.5"></path><path d="M963.49 652.17L963.49 652.17" stroke="#132e65" stroke-width="1.5"></path><path d="M963.49 652.17L1091.02 678.8" stroke="#132e65" stroke-width="1.5"></path><path d="M1090.07 -71.88L1090.07 -71.88" stroke="#132e65" stroke-width="1.5"></path><path d="M1143.39 97.94L1143.39 97.94" stroke="#132e65" stroke-width="1.5"></path><path d="M1143.39 97.94L1136 229.54" stroke="#132e65" stroke-width="1.5"></path><path d="M1143.39 97.94L1271.77 46.71" stroke="#132e65" stroke-width="1.5"></path><path d="M1143.39 97.94L1278.38 202.07" stroke="#132e65" stroke-width="1.5"></path><path d="M1143.39 97.94L1090.07 -71.88" stroke="#132e65" stroke-width="1.5"></path><path d="M1143.39 97.94L952.07 197.79" stroke="#132e65" stroke-width="1.5"></path><path d="M1136 229.54L1136 229.54" stroke="#132e65" stroke-width="1.5"></path><path d="M1136 229.54L1095.27 353.48" stroke="#132e65" stroke-width="1.5"></path><path d="M1095.27 353.48L1095.27 353.48" stroke="#132e65" stroke-width="1.5"></path><path d="M1095.27 353.48L1118.46 490.59" stroke="#132e65" stroke-width="1.5"></path><path d="M1095.27 353.48L1306.29 339.39" stroke="#132e65" stroke-width="1.5"></path><path d="M1118.46 490.59L1118.46 490.59" stroke="#132e65" stroke-width="1.5"></path><path d="M1118.46 490.59L994.3 379.4" stroke="#132e65" stroke-width="1.5"></path><path d="M1118.46 490.59L1091.02 678.8" stroke="#132e65" stroke-width="1.5"></path><path d="M1118.46 490.59L963.49 652.17" stroke="#132e65" stroke-width="1.5"></path><path d="M1091.02 678.8L1091.02 678.8" stroke="#132e65" stroke-width="1.5"></path><path d="M1276.08 -88.48L1276.08 -88.48" stroke="#132e65" stroke-width="1.5"></path><path d="M1276.08 -88.48L1391.3 -59.12" stroke="#132e65" stroke-width="1.5"></path><path d="M1276.08 -88.48L1271.77 46.71" stroke="#132e65" stroke-width="1.5"></path><path d="M1271.77 46.71L1271.77 46.71" stroke="#132e65" stroke-width="1.5"></path><path d="M1278.38 202.07L1278.38 202.07" stroke="#132e65" stroke-width="1.5"></path><path d="M1278.38 202.07L1306.29 339.39" stroke="#132e65" stroke-width="1.5"></path><path d="M1278.38 202.07L1417.96 189.23" stroke="#132e65" stroke-width="1.5"></path><path d="M1278.38 202.07L1136 229.54" stroke="#132e65" stroke-width="1.5"></path><path d="M1278.38 202.07L1271.77 46.71" stroke="#132e65" stroke-width="1.5"></path><path d="M1306.29 339.39L1306.29 339.39" stroke="#132e65" stroke-width="1.5"></path><path d="M1306.29 339.39L1452.96 348.25" stroke="#132e65" stroke-width="1.5"></path><path d="M1297.07 662.46L1297.07 662.46" stroke="#132e65" stroke-width="1.5"></path><path d="M1297.07 662.46L1396.28 670.02" stroke="#132e65" stroke-width="1.5"></path><path d="M1297.07 662.46L1417.19 548.17" stroke="#132e65" stroke-width="1.5"></path><path d="M1297.07 662.46L1091.02 678.8" stroke="#132e65" stroke-width="1.5"></path><path d="M1297.07 662.46L1542.65 667.06" stroke="#132e65" stroke-width="1.5"></path><path d="M1297.07 662.46L1118.46 490.59" stroke="#132e65" stroke-width="1.5"></path><path d="M1391.3 -59.12L1391.3 -59.12" stroke="#132e65" stroke-width="1.5"></path><path d="M1391.3 -59.12L1271.77 46.71" stroke="#132e65" stroke-width="1.5"></path><path d="M1391.3 -59.12L1433.16 99.78" stroke="#132e65" stroke-width="1.5"></path><path d="M1391.3 -59.12L1589.26 -86.47" stroke="#132e65" stroke-width="1.5"></path><path d="M1391.3 -59.12L1417.96 189.23" stroke="#132e65" stroke-width="1.5"></path><path d="M1433.16 99.78L1433.16 99.78" stroke="#132e65" stroke-width="1.5"></path><path d="M1433.16 99.78L1417.96 189.23" stroke="#132e65" stroke-width="1.5"></path><path d="M1433.16 99.78L1271.77 46.71" stroke="#132e65" stroke-width="1.5"></path><path d="M1433.16 99.78L1611.86 84.64" stroke="#132e65" stroke-width="1.5"></path><path d="M1417.96 189.23L1417.96 189.23" stroke="#132e65" stroke-width="1.5"></path><path d="M1417.96 189.23L1452.96 348.25" stroke="#132e65" stroke-width="1.5"></path><path d="M1417.96 189.23L1306.29 339.39" stroke="#132e65" stroke-width="1.5"></path><path d="M1417.96 189.23L1271.77 46.71" stroke="#132e65" stroke-width="1.5"></path><path d="M1417.96 189.23L1611.76 255.07" stroke="#132e65" stroke-width="1.5"></path><path d="M1452.96 348.25L1452.96 348.25" stroke="#132e65" stroke-width="1.5"></path><path d="M1452.96 348.25L1574.14 408.35" stroke="#132e65" stroke-width="1.5"></path><path d="M1452.96 348.25L1611.76 255.07" stroke="#132e65" stroke-width="1.5"></path><path d="M1452.96 348.25L1417.19 548.17" stroke="#132e65" stroke-width="1.5"></path><path d="M1417.19 548.17L1417.19 548.17" stroke="#132e65" stroke-width="1.5"></path><path d="M1417.19 548.17L1396.28 670.02" stroke="#132e65" stroke-width="1.5"></path><path d="M1396.28 670.02L1396.28 670.02" stroke="#132e65" stroke-width="1.5"></path><path d="M1396.28 670.02L1542.65 667.06" stroke="#132e65" stroke-width="1.5"></path><path d="M1396.28 670.02L1593.06 539.28" stroke="#132e65" stroke-width="1.5"></path><path d="M1589.26 -86.47L1589.26 -86.47" stroke="#132e65" stroke-width="1.5"></path><path d="M1589.26 -86.47L1611.86 84.64" stroke="#132e65" stroke-width="1.5"></path><path d="M1589.26 -86.47L1433.16 99.78" stroke="#132e65" stroke-width="1.5"></path><path d="M1589.26 -86.47L1276.08 -88.48" stroke="#132e65" stroke-width="1.5"></path><path d="M1589.26 -86.47L1417.96 189.23" stroke="#132e65" stroke-width="1.5"></path><path d="M1611.86 84.64L1611.86 84.64" stroke="#132e65" stroke-width="1.5"></path><path d="M1611.86 84.64L1611.76 255.07" stroke="#132e65" stroke-width="1.5"></path><path d="M1611.86 84.64L1417.96 189.23" stroke="#132e65" stroke-width="1.5"></path><path d="M1611.86 84.64L1391.3 -59.12" stroke="#132e65" stroke-width="1.5"></path><path d="M1611.76 255.07L1611.76 255.07" stroke="#132e65" stroke-width="1.5"></path><path d="M1611.76 255.07L1574.14 408.35" stroke="#132e65" stroke-width="1.5"></path><path d="M1574.14 408.35L1574.14 408.35" stroke="#132e65" stroke-width="1.5"></path><path d="M1574.14 408.35L1593.06 539.28" stroke="#132e65" stroke-width="1.5"></path><path d="M1593.06 539.28L1593.06 539.28" stroke="#132e65" stroke-width="1.5"></path><path d="M1593.06 539.28L1542.65 667.06" stroke="#132e65" stroke-width="1.5"></path><path d="M1542.65 667.06L1542.65 667.06" stroke="#132e65" stroke-width="1.5"></path><circle r="5" cx="-89.39" cy="358.87" fill="#132e65"></circle><circle r="5" cx="-49.3" cy="501.61" fill="#132e65"></circle><circle r="5" cx="-69.74" cy="689.01" fill="#132e65"></circle><circle r="5" cx="98.77" cy="351.37" fill="#132e65"></circle><circle r="5" cx="39.78" cy="500.06" fill="#132e65"></circle><circle r="5" cx="70.48" cy="660.57" fill="#132e65"></circle><circle r="5" cx="230.54" cy="366.11" fill="#132e65"></circle><circle r="5" cx="194.16" cy="555.16" fill="#132e65"></circle><circle r="5" cx="226.66" cy="684.88" fill="#132e65"></circle><circle r="5" cx="341.01" cy="382.84" fill="#132e65"></circle><circle r="5" cx="357.18" cy="495.92" fill="#132e65"></circle><circle r="5" cx="407.66" cy="708.65" fill="#132e65"></circle><circle r="5" cx="506.68" cy="384.28" fill="#132e65"></circle><circle r="5" cx="540.37" cy="498.34" fill="#132e65"></circle><circle r="5" cx="533.21" cy="707.63" fill="#132e65"></circle><circle r="5" cx="683" cy="206.27" fill="#132e65"></circle><circle r="5" cx="665.55" cy="342.53" fill="#132e65"></circle><circle r="5" cx="671.89" cy="513.88" fill="#132e65"></circle><circle r="5" cx="691.38" cy="685.88" fill="#132e65"></circle><circle r="5" cx="842.64" cy="86.17" fill="#132e65"></circle><circle r="5" cx="829.77" cy="250.33" fill="#132e65"></circle><circle r="5" cx="845.22" cy="391.08" fill="#132e65"></circle><circle r="5" cx="841.4" cy="534.47" fill="#132e65"></circle><circle r="5" cx="823.48" cy="692.66" fill="#132e65"></circle><circle r="5" cx="939.55" cy="-102.11" fill="#132e65"></circle><circle r="5" cx="1009.05" cy="64.56" fill="#132e65"></circle><circle r="5" cx="952.07" cy="197.79" fill="#132e65"></circle><circle r="5" cx="994.3" cy="379.4" fill="#132e65"></circle><circle r="5" cx="963.32" cy="525.9" fill="#132e65"></circle><circle r="5" cx="963.49" cy="652.17" fill="#132e65"></circle><circle r="5" cx="1090.07" cy="-71.88" fill="#132e65"></circle><circle r="5" cx="1143.39" cy="97.94" fill="#132e65"></circle><circle r="5" cx="1136" cy="229.54" fill="#132e65"></circle><circle r="5" cx="1095.27" cy="353.48" fill="#132e65"></circle><circle r="5" cx="1118.46" cy="490.59" fill="#132e65"></circle><circle r="5" cx="1091.02" cy="678.8" fill="#132e65"></circle><circle r="5" cx="1276.08" cy="-88.48" fill="#132e65"></circle><circle r="5" cx="1271.77" cy="46.71" fill="#132e65"></circle><circle r="5" cx="1278.38" cy="202.07" fill="#132e65"></circle><circle r="5" cx="1306.29" cy="339.39" fill="#132e65"></circle><circle r="5" cx="1297.07" cy="662.46" fill="#132e65"></circle><circle r="5" cx="1391.3" cy="-59.12" fill="#132e65"></circle><circle r="5" cx="1433.16" cy="99.78" fill="#132e65"></circle><circle r="5" cx="1417.96" cy="189.23" fill="#132e65"></circle><circle r="5" cx="1452.96" cy="348.25" fill="#132e65"></circle><circle r="5" cx="1417.19" cy="548.17" fill="#132e65"></circle><circle r="5" cx="1396.28" cy="670.02" fill="#132e65"></circle><circle r="5" cx="1589.26" cy="-86.47" fill="#132e65"></circle><circle r="5" cx="1611.86" cy="84.64" fill="#132e65"></circle><circle r="5" cx="1611.76" cy="255.07" fill="#132e65"></circle><circle r="5" cx="1574.14" cy="408.35" fill="#132e65"></circle><circle r="5" cx="1593.06" cy="539.28" fill="#132e65"></circle><circle r="5" cx="1542.65" cy="667.06" fill="#132e65"></circle><path d="M559.27 508.7L559.27 508.7" stroke="hsl(228.5, 77.2%, 51.5%)" stroke-width="1.5"></path><path d="M559.27 508.7L668.16 560.04" stroke="hsl(228.5, 77.2%, 51.5%)" stroke-width="1.5"></path><path d="M559.27 508.7L561.7 694.02" stroke="hsl(228.5, 77.2%, 51.5%)" stroke-width="1.5"></path><path d="M559.27 508.7L696.13 377.5" stroke="hsl(228.5, 77.2%, 51.5%)" stroke-width="1.5"></path><path d="M1135.03 362.49L1135.03 362.49" stroke="hsl(228.5, 77.2%, 51.5%)" stroke-width="1.5"></path><path d="M1135.03 362.49L1004.48 339.26" stroke="hsl(228.5, 77.2%, 51.5%)" stroke-width="1.5"></path><path d="M1135.03 362.49L1284.59 361.05" stroke="hsl(228.5, 77.2%, 51.5%)" stroke-width="1.5"></path><path d="M1099.66 555.59L1099.66 555.59" stroke="hsl(228.5, 77.2%, 51.5%)" stroke-width="1.5"></path><path d="M1099.66 555.59L990.78 544.97" stroke="hsl(228.5, 77.2%, 51.5%)" stroke-width="1.5"></path><path d="M1099.66 555.59L1134.14 660.86" stroke="hsl(228.5, 77.2%, 51.5%)" stroke-width="1.5"></path><path d="M1266.08 652.93L1266.08 652.93" stroke="hsl(228.5, 77.2%, 51.5%)" stroke-width="1.5"></path><path d="M1266.08 652.93L1287.34 556.88" stroke="hsl(228.5, 77.2%, 51.5%)" stroke-width="1.5"></path><path d="M1266.08 652.93L1134.14 660.86" stroke="hsl(228.5, 77.2%, 51.5%)" stroke-width="1.5"></path><path d="M1266.08 652.93L1417.97 672.32" stroke="hsl(228.5, 77.2%, 51.5%)" stroke-width="1.5"></path><path d="M1266.08 652.93L1402.3 541.85" stroke="hsl(228.5, 77.2%, 51.5%)" stroke-width="1.5"></path><path d="M1432.85 -106.19L1432.85 -106.19" stroke="hsl(228.5, 77.2%, 51.5%)" stroke-width="1.5"></path><path d="M1432.85 -106.19L1286.17 -53.98" stroke="hsl(228.5, 77.2%, 51.5%)" stroke-width="1.5"></path><path d="M1432.85 -106.19L1592.96 -111.19" stroke="hsl(228.5, 77.2%, 51.5%)" stroke-width="1.5"></path><path d="M1432.85 -106.19L1403.76 91.33" stroke="hsl(228.5, 77.2%, 51.5%)" stroke-width="1.5"></path><path d="M1432.85 -106.19L1246.47 41.96" stroke="hsl(228.5, 77.2%, 51.5%)" stroke-width="1.5"></path><path d="M1592.96 -111.19L1592.96 -111.19" stroke="hsl(228.5, 77.2%, 51.5%)" stroke-width="1.5"></path><path d="M1592.96 -111.19L1572.39 103.97" stroke="hsl(228.5, 77.2%, 51.5%)" stroke-width="1.5"></path><path d="M1592.96 -111.19L1403.76 91.33" stroke="hsl(228.5, 77.2%, 51.5%)" stroke-width="1.5"></path><path d="M1592.96 -111.19L1286.17 -53.98" stroke="hsl(228.5, 77.2%, 51.5%)" stroke-width="1.5"></path><path d="M1592.96 -111.19L1609.56 236.5" stroke="hsl(228.5, 77.2%, 51.5%)" stroke-width="1.5"></path><path d="M1552.2 523.36L1552.2 523.36" stroke="hsl(228.5, 77.2%, 51.5%)" stroke-width="1.5"></path><path d="M1552.2 523.36L1610.9 386.08" stroke="hsl(228.5, 77.2%, 51.5%)" stroke-width="1.5"></path><path d="M1552.2 523.36L1402.3 541.85" stroke="hsl(228.5, 77.2%, 51.5%)" stroke-width="1.5"></path><path d="M1552.2 523.36L1575.68 696.35" stroke="hsl(228.5, 77.2%, 51.5%)" stroke-width="1.5"></path><path d="M-82.05 703.95L-82.05 703.95" stroke="hsl(228.5, 77.2%, 51.5%)" stroke-width="1.5"></path><path d="M-82.05 703.95L82.97 683.68" stroke="hsl(228.5, 77.2%, 51.5%)" stroke-width="1.5"></path><path d="M-82.05 703.95L75.42 492.67" stroke="hsl(228.5, 77.2%, 51.5%)" stroke-width="1.5"></path><path d="M-82.05 703.95L211.46 659.4" stroke="hsl(228.5, 77.2%, 51.5%)" stroke-width="1.5"></path><path d="M-82.05 703.95L207.16 549.94" stroke="hsl(228.5, 77.2%, 51.5%)" stroke-width="1.5"></path><path d="M75.42 492.67L75.42 492.67" stroke="hsl(228.5, 77.2%, 51.5%)" stroke-width="1.5"></path><path d="M75.42 492.67L207.16 549.94" stroke="hsl(228.5, 77.2%, 51.5%)" stroke-width="1.5"></path><path d="M75.42 492.67L82.97 683.68" stroke="hsl(228.5, 77.2%, 51.5%)" stroke-width="1.5"></path><path d="M75.42 492.67L211.46 659.4" stroke="hsl(228.5, 77.2%, 51.5%)" stroke-width="1.5"></path><path d="M82.97 683.68L82.97 683.68" stroke="hsl(228.5, 77.2%, 51.5%)" stroke-width="1.5"></path><path d="M82.97 683.68L211.46 659.4" stroke="hsl(228.5, 77.2%, 51.5%)" stroke-width="1.5"></path><path d="M82.97 683.68L207.16 549.94" stroke="hsl(228.5, 77.2%, 51.5%)" stroke-width="1.5"></path><path d="M82.97 683.68L357.17 681.38" stroke="hsl(228.5, 77.2%, 51.5%)" stroke-width="1.5"></path><path d="M207.16 549.94L207.16 549.94" stroke="hsl(228.5, 77.2%, 51.5%)" stroke-width="1.5"></path><path d="M207.16 549.94L211.46 659.4" stroke="hsl(228.5, 77.2%, 51.5%)" stroke-width="1.5"></path><path d="M207.16 549.94L363.55 531.37" stroke="hsl(228.5, 77.2%, 51.5%)" stroke-width="1.5"></path><path d="M211.46 659.4L211.46 659.4" stroke="hsl(228.5, 77.2%, 51.5%)" stroke-width="1.5"></path><path d="M211.46 659.4L357.17 681.38" stroke="hsl(228.5, 77.2%, 51.5%)" stroke-width="1.5"></path><path d="M211.46 659.4L363.55 531.37" stroke="hsl(228.5, 77.2%, 51.5%)" stroke-width="1.5"></path><path d="M363.55 531.37L363.55 531.37" stroke="hsl(228.5, 77.2%, 51.5%)" stroke-width="1.5"></path><path d="M363.55 531.37L357.17 681.38" stroke="hsl(228.5, 77.2%, 51.5%)" stroke-width="1.5"></path><path d="M363.55 531.37L559.27 508.7" stroke="hsl(228.5, 77.2%, 51.5%)" stroke-width="1.5"></path><path d="M363.55 531.37L561.7 694.02" stroke="hsl(228.5, 77.2%, 51.5%)" stroke-width="1.5"></path><path d="M363.55 531.37L75.42 492.67" stroke="hsl(228.5, 77.2%, 51.5%)" stroke-width="1.5"></path><path d="M357.17 681.38L357.17 681.38" stroke="hsl(228.5, 77.2%, 51.5%)" stroke-width="1.5"></path><path d="M561.7 694.02L561.7 694.02" stroke="hsl(228.5, 77.2%, 51.5%)" stroke-width="1.5"></path><path d="M561.7 694.02L710.85 645.75" stroke="hsl(228.5, 77.2%, 51.5%)" stroke-width="1.5"></path><path d="M561.7 694.02L668.16 560.04" stroke="hsl(228.5, 77.2%, 51.5%)" stroke-width="1.5"></path><path d="M561.7 694.02L357.17 681.38" stroke="hsl(228.5, 77.2%, 51.5%)" stroke-width="1.5"></path><path d="M561.7 694.02L833.37 658.65" stroke="hsl(228.5, 77.2%, 51.5%)" stroke-width="1.5"></path><path d="M696.13 377.5L696.13 377.5" stroke="hsl(228.5, 77.2%, 51.5%)" stroke-width="1.5"></path><path d="M696.13 377.5L820.7 363.67" stroke="hsl(228.5, 77.2%, 51.5%)" stroke-width="1.5"></path><path d="M696.13 377.5L668.16 560.04" stroke="hsl(228.5, 77.2%, 51.5%)" stroke-width="1.5"></path><path d="M696.13 377.5L859.98 561.88" stroke="hsl(228.5, 77.2%, 51.5%)" stroke-width="1.5"></path><path d="M696.13 377.5L710.85 645.75" stroke="hsl(228.5, 77.2%, 51.5%)" stroke-width="1.5"></path><path d="M668.16 560.04L668.16 560.04" stroke="hsl(228.5, 77.2%, 51.5%)" stroke-width="1.5"></path><path d="M668.16 560.04L710.85 645.75" stroke="hsl(228.5, 77.2%, 51.5%)" stroke-width="1.5"></path><path d="M710.85 645.75L710.85 645.75" stroke="hsl(228.5, 77.2%, 51.5%)" stroke-width="1.5"></path><path d="M710.85 645.75L833.37 658.65" stroke="hsl(228.5, 77.2%, 51.5%)" stroke-width="1.5"></path><path d="M710.85 645.75L859.98 561.88" stroke="hsl(228.5, 77.2%, 51.5%)" stroke-width="1.5"></path><path d="M710.85 645.75L559.27 508.7" stroke="hsl(228.5, 77.2%, 51.5%)" stroke-width="1.5"></path><path d="M710.85 645.75L979.35 645.8" stroke="hsl(228.5, 77.2%, 51.5%)" stroke-width="1.5"></path><path d="M820.7 363.67L820.7 363.67" stroke="hsl(228.5, 77.2%, 51.5%)" stroke-width="1.5"></path><path d="M820.7 363.67L963.04 260.04" stroke="hsl(228.5, 77.2%, 51.5%)" stroke-width="1.5"></path><path d="M820.7 363.67L1004.48 339.26" stroke="hsl(228.5, 77.2%, 51.5%)" stroke-width="1.5"></path><path d="M820.7 363.67L859.98 561.88" stroke="hsl(228.5, 77.2%, 51.5%)" stroke-width="1.5"></path><path d="M859.98 561.88L859.98 561.88" stroke="hsl(228.5, 77.2%, 51.5%)" stroke-width="1.5"></path><path d="M859.98 561.88L833.37 658.65" stroke="hsl(228.5, 77.2%, 51.5%)" stroke-width="1.5"></path><path d="M859.98 561.88L990.78 544.97" stroke="hsl(228.5, 77.2%, 51.5%)" stroke-width="1.5"></path><path d="M859.98 561.88L979.35 645.8" stroke="hsl(228.5, 77.2%, 51.5%)" stroke-width="1.5"></path><path d="M859.98 561.88L668.16 560.04" stroke="hsl(228.5, 77.2%, 51.5%)" stroke-width="1.5"></path><path d="M833.37 658.65L833.37 658.65" stroke="hsl(228.5, 77.2%, 51.5%)" stroke-width="1.5"></path><path d="M833.37 658.65L979.35 645.8" stroke="hsl(228.5, 77.2%, 51.5%)" stroke-width="1.5"></path><path d="M833.37 658.65L668.16 560.04" stroke="hsl(228.5, 77.2%, 51.5%)" stroke-width="1.5"></path><path d="M833.37 658.65L990.78 544.97" stroke="hsl(228.5, 77.2%, 51.5%)" stroke-width="1.5"></path><path d="M963.04 260.04L963.04 260.04" stroke="hsl(228.5, 77.2%, 51.5%)" stroke-width="1.5"></path><path d="M963.04 260.04L1004.48 339.26" stroke="hsl(228.5, 77.2%, 51.5%)" stroke-width="1.5"></path><path d="M1004.48 339.26L1004.48 339.26" stroke="hsl(228.5, 77.2%, 51.5%)" stroke-width="1.5"></path><path d="M990.78 544.97L990.78 544.97" stroke="hsl(228.5, 77.2%, 51.5%)" stroke-width="1.5"></path><path d="M990.78 544.97L979.35 645.8" stroke="hsl(228.5, 77.2%, 51.5%)" stroke-width="1.5"></path><path d="M990.78 544.97L1134.14 660.86" stroke="hsl(228.5, 77.2%, 51.5%)" stroke-width="1.5"></path><path d="M979.35 645.8L979.35 645.8" stroke="hsl(228.5, 77.2%, 51.5%)" stroke-width="1.5"></path><path d="M1157.31 -74.51L1157.31 -74.51" stroke="hsl(228.5, 77.2%, 51.5%)" stroke-width="1.5"></path><path d="M1157.31 -74.51L1286.17 -53.98" stroke="hsl(228.5, 77.2%, 51.5%)" stroke-width="1.5"></path><path d="M1157.31 -74.51L1246.47 41.96" stroke="hsl(228.5, 77.2%, 51.5%)" stroke-width="1.5"></path><path d="M1157.31 -74.51L1158.11 201.74" stroke="hsl(228.5, 77.2%, 51.5%)" stroke-width="1.5"></path><path d="M1158.11 201.74L1158.11 201.74" stroke="hsl(228.5, 77.2%, 51.5%)" stroke-width="1.5"></path><path d="M1158.11 201.74L1242.75 236.33" stroke="hsl(228.5, 77.2%, 51.5%)" stroke-width="1.5"></path><path d="M1158.11 201.74L1135.03 362.49" stroke="hsl(228.5, 77.2%, 51.5%)" stroke-width="1.5"></path><path d="M1158.11 201.74L1246.47 41.96" stroke="hsl(228.5, 77.2%, 51.5%)" stroke-width="1.5"></path><path d="M1134.14 660.86L1134.14 660.86" stroke="hsl(228.5, 77.2%, 51.5%)" stroke-width="1.5"></path><path d="M1134.14 660.86L979.35 645.8" stroke="hsl(228.5, 77.2%, 51.5%)" stroke-width="1.5"></path><path d="M1134.14 660.86L1287.34 556.88" stroke="hsl(228.5, 77.2%, 51.5%)" stroke-width="1.5"></path><path d="M1134.14 660.86L1417.97 672.32" stroke="hsl(228.5, 77.2%, 51.5%)" stroke-width="1.5"></path><path d="M1286.17 -53.98L1286.17 -53.98" stroke="hsl(228.5, 77.2%, 51.5%)" stroke-width="1.5"></path><path d="M1286.17 -53.98L1246.47 41.96" stroke="hsl(228.5, 77.2%, 51.5%)" stroke-width="1.5"></path><path d="M1246.47 41.96L1246.47 41.96" stroke="hsl(228.5, 77.2%, 51.5%)" stroke-width="1.5"></path><path d="M1246.47 41.96L1403.76 91.33" stroke="hsl(228.5, 77.2%, 51.5%)" stroke-width="1.5"></path><path d="M1242.75 236.33L1242.75 236.33" stroke="hsl(228.5, 77.2%, 51.5%)" stroke-width="1.5"></path><path d="M1242.75 236.33L1284.59 361.05" stroke="hsl(228.5, 77.2%, 51.5%)" stroke-width="1.5"></path><path d="M1242.75 236.33L1135.03 362.49" stroke="hsl(228.5, 77.2%, 51.5%)" stroke-width="1.5"></path><path d="M1284.59 361.05L1284.59 361.05" stroke="hsl(228.5, 77.2%, 51.5%)" stroke-width="1.5"></path><path d="M1284.59 361.05L1399.68 372.63" stroke="hsl(228.5, 77.2%, 51.5%)" stroke-width="1.5"></path><path d="M1287.34 556.88L1287.34 556.88" stroke="hsl(228.5, 77.2%, 51.5%)" stroke-width="1.5"></path><path d="M1287.34 556.88L1402.3 541.85" stroke="hsl(228.5, 77.2%, 51.5%)" stroke-width="1.5"></path><path d="M1287.34 556.88L1417.97 672.32" stroke="hsl(228.5, 77.2%, 51.5%)" stroke-width="1.5"></path><path d="M1287.34 556.88L1099.66 555.59" stroke="hsl(228.5, 77.2%, 51.5%)" stroke-width="1.5"></path><path d="M1287.34 556.88L1284.59 361.05" stroke="hsl(228.5, 77.2%, 51.5%)" stroke-width="1.5"></path><path d="M1403.76 91.33L1403.76 91.33" stroke="hsl(228.5, 77.2%, 51.5%)" stroke-width="1.5"></path><path d="M1403.76 91.33L1446.75 204.8" stroke="hsl(228.5, 77.2%, 51.5%)" stroke-width="1.5"></path><path d="M1446.75 204.8L1446.75 204.8" stroke="hsl(228.5, 77.2%, 51.5%)" stroke-width="1.5"></path><path d="M1446.75 204.8L1572.39 103.97" stroke="hsl(228.5, 77.2%, 51.5%)" stroke-width="1.5"></path><path d="M1399.68 372.63L1399.68 372.63" stroke="hsl(228.5, 77.2%, 51.5%)" stroke-width="1.5"></path><path d="M1399.68 372.63L1402.3 541.85" stroke="hsl(228.5, 77.2%, 51.5%)" stroke-width="1.5"></path><path d="M1402.3 541.85L1402.3 541.85" stroke="hsl(228.5, 77.2%, 51.5%)" stroke-width="1.5"></path><path d="M1402.3 541.85L1417.97 672.32" stroke="hsl(228.5, 77.2%, 51.5%)" stroke-width="1.5"></path><path d="M1417.97 672.32L1417.97 672.32" stroke="hsl(228.5, 77.2%, 51.5%)" stroke-width="1.5"></path><path d="M1417.97 672.32L1575.68 696.35" stroke="hsl(228.5, 77.2%, 51.5%)" stroke-width="1.5"></path><path d="M1417.97 672.32L1552.2 523.36" stroke="hsl(228.5, 77.2%, 51.5%)" stroke-width="1.5"></path><path d="M1572.39 103.97L1572.39 103.97" stroke="hsl(228.5, 77.2%, 51.5%)" stroke-width="1.5"></path><path d="M1572.39 103.97L1609.56 236.5" stroke="hsl(228.5, 77.2%, 51.5%)" stroke-width="1.5"></path><path d="M1572.39 103.97L1403.76 91.33" stroke="hsl(228.5, 77.2%, 51.5%)" stroke-width="1.5"></path><path d="M1572.39 103.97L1432.85 -106.19" stroke="hsl(228.5, 77.2%, 51.5%)" stroke-width="1.5"></path><path d="M1572.39 103.97L1610.9 386.08" stroke="hsl(228.5, 77.2%, 51.5%)" stroke-width="1.5"></path><path d="M1609.56 236.5L1609.56 236.5" stroke="hsl(228.5, 77.2%, 51.5%)" stroke-width="1.5"></path><path d="M1609.56 236.5L1610.9 386.08" stroke="hsl(228.5, 77.2%, 51.5%)" stroke-width="1.5"></path><path d="M1609.56 236.5L1446.75 204.8" stroke="hsl(228.5, 77.2%, 51.5%)" stroke-width="1.5"></path><path d="M1609.56 236.5L1399.68 372.63" stroke="hsl(228.5, 77.2%, 51.5%)" stroke-width="1.5"></path><path d="M1609.56 236.5L1403.76 91.33" stroke="hsl(228.5, 77.2%, 51.5%)" stroke-width="1.5"></path><path d="M1609.56 236.5L1552.2 523.36" stroke="hsl(228.5, 77.2%, 51.5%)" stroke-width="1.5"></path><path d="M1610.9 386.08L1610.9 386.08" stroke="hsl(228.5, 77.2%, 51.5%)" stroke-width="1.5"></path><path d="M1575.68 696.35L1575.68 696.35" stroke="hsl(228.5, 77.2%, 51.5%)" stroke-width="1.5"></path><path d="M1575.68 696.35L1402.3 541.85" stroke="hsl(228.5, 77.2%, 51.5%)" stroke-width="1.5"></path><path d="M1575.68 696.35L1610.9 386.08" stroke="hsl(228.5, 77.2%, 51.5%)" stroke-width="1.5"></path><path d="M1575.68 696.35L1266.08 652.93" stroke="hsl(228.5, 77.2%, 51.5%)" stroke-width="1.5"></path><circle r="25" cx="559.27" cy="508.7" fill="url(&quot;#SvgjsRadialGradient1013&quot;)"></circle><circle r="25" cx="1135.03" cy="362.49" fill="url(&quot;#SvgjsRadialGradient1013&quot;)"></circle><circle r="25" cx="1099.66" cy="555.59" fill="url(&quot;#SvgjsRadialGradient1013&quot;)"></circle><circle r="25" cx="1266.08" cy="652.93" fill="url(&quot;#SvgjsRadialGradient1013&quot;)"></circle><circle r="25" cx="1432.85" cy="-106.19" fill="url(&quot;#SvgjsRadialGradient1013&quot;)"></circle><circle r="25" cx="1592.96" cy="-111.19" fill="url(&quot;#SvgjsRadialGradient1013&quot;)"></circle><circle r="25" cx="1552.2" cy="523.36" fill="url(&quot;#SvgjsRadialGradient1013&quot;)"></circle><circle r="5" cx="-82.05" cy="703.95" fill="#8b9ad9"></circle><circle r="5" cx="75.42" cy="492.67" fill="#8b9ad9"></circle><circle r="5" cx="82.97" cy="683.68" fill="#8b9ad9"></circle><circle r="5" cx="207.16" cy="549.94" fill="#8b9ad9"></circle><circle r="5" cx="211.46" cy="659.4" fill="#8b9ad9"></circle><circle r="5" cx="363.55" cy="531.37" fill="#8b9ad9"></circle><circle r="5" cx="357.17" cy="681.38" fill="#8b9ad9"></circle><circle r="5" cx="561.7" cy="694.02" fill="#8b9ad9"></circle><circle r="5" cx="696.13" cy="377.5" fill="#8b9ad9"></circle><circle r="5" cx="668.16" cy="560.04" fill="#8b9ad9"></circle><circle r="5" cx="710.85" cy="645.75" fill="#8b9ad9"></circle><circle r="5" cx="820.7" cy="363.67" fill="#8b9ad9"></circle><circle r="5" cx="859.98" cy="561.88" fill="#8b9ad9"></circle><circle r="5" cx="833.37" cy="658.65" fill="#8b9ad9"></circle><circle r="5" cx="963.04" cy="260.04" fill="#8b9ad9"></circle><circle r="5" cx="1004.48" cy="339.26" fill="#8b9ad9"></circle><circle r="5" cx="990.78" cy="544.97" fill="#8b9ad9"></circle><circle r="5" cx="979.35" cy="645.8" fill="#8b9ad9"></circle><circle r="5" cx="1157.31" cy="-74.51" fill="#8b9ad9"></circle><circle r="5" cx="1158.11" cy="201.74" fill="#8b9ad9"></circle><circle r="5" cx="1134.14" cy="660.86" fill="#8b9ad9"></circle><circle r="5" cx="1286.17" cy="-53.98" fill="#8b9ad9"></circle><circle r="5" cx="1246.47" cy="41.96" fill="#8b9ad9"></circle><circle r="5" cx="1242.75" cy="236.33" fill="#8b9ad9"></circle><circle r="5" cx="1284.59" cy="361.05" fill="#8b9ad9"></circle><circle r="5" cx="1287.34" cy="556.88" fill="#8b9ad9"></circle><circle r="5" cx="1403.76" cy="91.33" fill="#8b9ad9"></circle><circle r="5" cx="1446.75" cy="204.8" fill="#8b9ad9"></circle><circle r="5" cx="1399.68" cy="372.63" fill="#8b9ad9"></circle><circle r="5" cx="1402.3" cy="541.85" fill="#8b9ad9"></circle><circle r="5" cx="1417.97" cy="672.32" fill="#8b9ad9"></circle><circle r="5" cx="1572.39" cy="103.97" fill="#8b9ad9"></circle><circle r="5" cx="1609.56" cy="236.5" fill="#8b9ad9"></circle><circle r="5" cx="1610.9" cy="386.08" fill="#8b9ad9"></circle><circle r="5" cx="1575.68" cy="696.35" fill="#8b9ad9"></circle></g><defs><mask id="SvgjsMask1012"><rect width="1440" height="560" fill="#ffffff"></rect></mask><radialGradient id="SvgjsRadialGradient1013"><stop stop-color="#ffffff" offset="0.1"></stop><stop stop-color="#1735b3" offset="0.2"></stop><stop stop-color="rgba(23, 53, 179, 0)" offset="1"></stop></radialGradient></defs></svg>